<svg width="64" height="64" viewBox="0 0 64 64" fill="none" xmlns="http://www.w3.org/2000/svg">
  <defs>
    <linearGradient id="bg" x1="8" y1="6" x2="58" y2="58" gradientUnits="userSpaceOnUse">
      <stop stop-color="#EA5A4F"/>
      <stop offset="1" stop-color="#B82218"/>
    </linearGradient>
    <linearGradient id="moon" x1="21" y1="15" x2="39" y2="40" gradientUnits="userSpaceOnUse">
      <stop stop-color="#FFE6A5"/>
      <stop offset="1" stop-color="#D7A63A"/>
    </linearGradient>
    <filter id="shadow" x="0" y="0" width="64" height="64" filterUnits="userSpaceOnUse" color-interpolation-filters="sRGB">
      <feFlood flood-opacity="0" result="BackgroundImageFix"/>
      <feColorMatrix in="SourceAlpha" type="matrix" values="0 0 0 0 0 0 0 0 0 0 0 0 0 0 0 0 0 0 127 0" result="hardAlpha"/>
      <feOffset dy="2"/>
      <feGaussianBlur stdDeviation="2"/>
      <feComposite in2="hardAlpha" operator="out"/>
      <feColorMatrix type="matrix" values="0 0 0 0 0.63 0 0 0 0 0.08 0 0 0 0 0.07 0 0 0 0.28 0"/>
      <feBlend mode="normal" in2="BackgroundImageFix" result="effect1_dropShadow_1_1"/>
      <feBlend mode="normal" in="SourceGraphic" in2="effect1_dropShadow_1_1" result="shape"/>
    </filter>
  </defs>

  <g filter="url(#shadow)">
    <rect x="8" y="8" width="48" height="48" rx="14" fill="url(#bg)"/>
    <rect x="8.75" y="8.75" width="46.5" height="46.5" rx="13.25" stroke="rgba(255,255,255,0.26)" stroke-width="1.5"/>
  </g>

  <path d="M31.3 17.8C24.6 17.8 19.2 23.2 19.2 29.9C19.2 36.6 24.6 42 31.3 42C34 42 36.5 41.1 38.5 39.5C34.2 38.9 30.9 35.2 30.9 30.8C30.9 26.5 34.2 22.8 38.5 22.2C36.5 20.6 34 19.7 31.3 19.7V17.8Z" fill="url(#moon)"/>

  <circle cx="40.5" cy="22.5" r="2.1" fill="#FFD977"/>
  <circle cx="43.8" cy="27.4" r="1.2" fill="#FFD977" opacity="0.9"/>

  <path d="M21.8 45.2H42.2" stroke="#FCE9BF" stroke-width="2.2" stroke-linecap="round" opacity="0.9"/>
  <path d="M25.4 40.5H38.6" stroke="#FCE9BF" stroke-width="1.8" stroke-linecap="round" opacity="0.7"/>
</svg>
